<?xml version="1.0" standalone="no"?>
<!DOCTYPE svg PUBLIC "-//W3C//DTD SVG 20010904//EN"
 "http://www.w3.org/TR/2001/REC-SVG-20010904/DTD/svg10.dtd">
<svg version="1.0" xmlns="http://www.w3.org/2000/svg"
 width="500.000000pt" height="500.000000pt" viewBox="0 0 500.000000 500.000000"
 preserveAspectRatio="xMidYMid meet">

<g transform="translate(0.000000,500.000000) scale(0.100000,-0.100000)"
fill="#f17c12" stroke="none">
<path d="M2851 4841 c-15 -27 -14 -54 4 -77 13 -16 16 -17 25 -4 17 25 23 62
13 78 -15 24 -31 25 -42 3z"/>
<path d="M2069 4761 l-24 -19 23 -24 c28 -31 28 -39 -3 -68 -14 -13 -31 -43
-36 -67 -16 -61 -29 -69 -90 -54 -49 13 -51 12 -77 -12 -15 -14 -66 -43 -115
-63 -84 -36 -88 -36 -107 -19 -28 26 -26 69 5 89 35 23 31 38 -13 58 -20 10
-52 28 -70 39 -54 35 -61 14 -24 -78 43 -111 46 -126 28 -162 -22 -42 -55 -48
-116 -22 -55 24 -168 29 -188 9 -7 -7 -12 -29 -12 -49 0 -21 -7 -42 -16 -50
-8 -7 -54 -16 -102 -20 -48 -4 -126 -13 -174 -20 l-88 -13 0 -30 c1 -17 7 -42
15 -56 22 -39 18 -66 -17 -106 -75 -85 -198 -97 -262 -25 -22 24 -66 29 -66 7
0 -8 -15 -46 -34 -85 -32 -67 -34 -76 -29 -149 5 -70 3 -79 -17 -97 -12 -11
-36 -24 -53 -30 -67 -22 -95 -135 -58 -240 25 -70 27 -161 6 -231 -20 -67 -19
-84 11 -140 24 -44 26 -56 20 -121 l-6 -72 67 -88 c40 -53 90 -137 125 -213
110 -231 231 -383 414 -521 56 -42 113 -95 141 -132 60 -80 238 -289 328 -388
38 -42 84 -94 102 -116 82 -102 184 -139 432 -154 231 -15 267 -11 369 41 51
26 129 53 200 71 64 16 148 43 185 60 76 35 101 34 155 -8 l34 -25 26 31 c40
48 80 53 182 27 23 -6 27 -1 54 60 17 36 49 87 73 114 94 105 336 290 378 290
12 0 32 -11 45 -25 28 -30 66 -33 74 -7 10 30 48 60 127 101 54 27 82 49 104
80 38 54 26 63 -72 55 -73 -7 -73 -7 -73 18 0 13 -21 57 -46 96 -61 96 -45
119 46 66 88 -52 157 -49 204 7 32 38 33 78 4 128 -28 48 -20 59 68 101 49 24
73 44 113 95 42 54 55 64 74 60 25 -7 71 23 50 31 -7 3 -13 9 -13 13 0 17 170
85 274 111 111 27 129 46 39 41 -23 -1 -69 3 -100 8 -32 5 -82 12 -112 15 -30
3 -59 10 -64 15 -13 13 33 84 68 107 52 34 67 102 27 119 -9 4 -70 10 -134 13
-81 3 -121 9 -129 18 -17 21 -2 32 56 39 64 8 91 25 81 50 -5 15 -14 17 -50
12 -35 -5 -50 -2 -67 12 -23 18 -23 19 -10 117 7 55 21 132 32 172 37 141 18
189 -96 235 -72 29 -104 57 -105 92 0 11 -21 55 -46 98 -33 55 -46 88 -46 115
0 30 -7 43 -39 73 -26 24 -39 44 -39 62 0 31 5 32 55 12 49 -21 67 -13 93 40
31 64 28 71 -15 37 -24 -18 -56 -32 -86 -36 l-48 -7 7 28 c7 29 7 31 5 50 -2
20 -31 43 -56 43 -13 0 -42 -16 -66 -36 -67 -56 -116 -77 -195 -82 -92 -6
-149 13 -236 78 -63 47 -131 127 -170 198 -38 71 -118 85 -228 40 -36 -14
-101 -31 -145 -38 -121 -17 -232 -38 -289 -55 -66 -20 -110 -11 -153 32 -34
35 -34 35 -103 28 l-69 -7 -10 39 c-6 21 -11 52 -11 69 0 62 -31 114 -68 114
-5 0 -20 -9 -33 -19z m852 -858 c714 -721 1125 -1142 1122 -1151 -2 -8 -400
-172 -417 -172 -7 0 -73 65 -145 144 l-132 144 -132 -55 c-73 -30 -221 -91
-330 -136 l-198 -82 3 -203 3 -204 -190 -79 c-104 -44 -200 -82 -212 -85 l-23
-6 -1 403 c0 222 -2 412 -4 422 -2 10 -5 286 -6 614 l-3 597 175 73 c96 40
179 72 185 73 6 0 143 -134 305 -297z m-693 -5 l2 -198 -345 0 -345 0 0 -195
0 -195 315 0 315 0 0 -195 0 -195 -315 0 -315 0 0 -395 0 -395 -227 2 -228 3
-3 970 c-1 534 0 976 3 983 3 10 123 12 572 10 l568 -3 3 -197z m1978 -860 c5
-16 1 -27 -16 -40 -26 -21 -40 -16 -40 16 0 44 43 63 56 24z"/>
<path d="M2666 3543 c2 -21 5 -148 8 -282 4 -134 8 -246 11 -249 4 -4 300 115
354 143 25 12 24 13 -70 111 -52 55 -140 146 -194 204 -55 58 -103 106 -106
108 -4 2 -5 -14 -3 -35z"/>
<path d="M4491 2688 c7 -31 20 -51 47 -73 20 -16 57 -49 82 -72 25 -23 58 -47
74 -52 48 -19 173 -11 160 10 -3 5 -18 9 -33 9 -69 0 -148 56 -186 130 -31 62
-67 90 -115 90 l-38 0 9 -42z"/>
<path d="M3110 1271 c0 -67 -2 -121 -4 -121 -2 0 -17 7 -32 15 -71 37 -163 7
-202 -66 -75 -140 60 -299 196 -230 35 18 42 19 42 6 0 -12 12 -15 55 -15 l55
0 -2 263 -3 262 -52 3 -53 3 0 -120z m-20 -201 c30 -30 27 -83 -6 -109 -35
-28 -69 -26 -99 4 -30 30 -32 64 -4 99 26 33 79 36 109 6z"/>
<path d="M560 1115 l0 -255 55 0 54 0 3 103 3 102 78 3 77 3 0 44 0 45 -80 0
-80 0 0 55 0 55 90 0 90 0 0 50 0 50 -145 0 -145 0 0 -255z"/>
<path d="M1058 1164 c-16 -8 -28 -19 -28 -25 0 -6 -4 -8 -10 -4 -5 3 -7 12 -3
20 4 12 -6 15 -51 15 l-56 0 0 -155 0 -155 55 0 55 0 0 98 c0 86 3 101 20 117
15 13 30 16 60 12 39 -5 41 -4 61 35 17 33 18 42 7 49 -21 13 -80 10 -110 -7z"/>
<path d="M1270 1161 c-20 -11 -44 -36 -58 -62 -75 -140 60 -299 196 -230 35
18 42 19 42 6 0 -12 12 -15 55 -15 l55 0 0 155 0 155 -54 0 c-30 0 -56 -5 -58
-11 -2 -6 -14 -5 -33 5 -40 21 -103 20 -145 -3z m160 -91 c30 -30 27 -83 -6
-109 -35 -28 -69 -26 -99 4 -30 30 -32 64 -4 99 26 33 79 36 109 6z"/>
<path d="M1773 1160 c-27 -16 -33 -17 -33 -5 0 11 -13 15 -55 15 l-55 0 0
-155 0 -155 55 0 55 0 0 100 c0 87 3 103 20 120 20 20 56 26 76 12 25 -16 34
-55 34 -141 l0 -91 50 0 50 0 0 123 c0 137 -8 159 -66 183 -47 20 -93 17 -131
-6z"/>
<path d="M2114 1170 c-38 -15 -82 -77 -90 -125 -20 -136 105 -236 219 -175 31
17 37 17 37 5 0 -12 13 -15 55 -15 l55 0 0 155 0 155 -54 0 c-30 0 -56 -5 -58
-11 -2 -6 -14 -5 -33 5 -32 17 -97 20 -131 6z m144 -96 c16 -11 22 -25 22 -54
0 -73 -75 -106 -125 -55 -30 30 -32 64 -4 99 24 30 72 35 107 10z"/>
<path d="M2620 1173 c-8 -3 -23 -12 -32 -21 -16 -14 -18 -13 -18 1 0 14 -10
17 -55 17 l-55 0 0 -155 0 -155 55 0 55 0 0 100 c0 87 3 103 20 120 11 11 31
20 44 20 52 0 70 -48 64 -169 l-3 -71 53 0 52 0 0 115 c0 134 -12 168 -65 191
-34 14 -87 17 -115 7z"/>
<path d="M3460 1173 c-8 -3 -25 -15 -37 -26 l-23 -20 0 21 c0 20 -5 22 -52 22
l-53 0 0 -155 0 -155 53 0 52 0 0 95 c0 83 3 98 21 116 18 18 29 20 64 16 42
-6 43 -6 61 34 15 35 16 42 3 50 -15 9 -65 11 -89 2z"/>
<path d="M3680 1169 c-119 -50 -136 -215 -29 -286 70 -46 169 -39 231 16 l32
29 -41 20 c-35 18 -43 19 -53 7 -34 -41 -129 -18 -130 32 0 9 32 13 113 15
l112 3 -2 40 c-3 43 -24 77 -66 109 -31 23 -128 32 -167 15z m108 -65 c41 -29
28 -44 -38 -44 -62 0 -69 5 -47 32 23 30 54 34 85 12z"/>
<path d="M4024 1165 c-30 -16 -54 -51 -54 -80 0 -35 26 -67 77 -91 36 -18 53
-32 53 -45 0 -24 -38 -26 -79 -4 -31 16 -37 13 -60 -33 -11 -21 -9 -24 31 -42
120 -55 251 15 218 116 -9 28 -23 39 -76 64 -35 17 -64 35 -64 41 0 17 32 23
70 12 37 -9 38 -9 54 23 19 41 13 46 -73 51 -47 3 -75 -1 -97 -12z"/>
<path d="M698 684 c-5 -4 -8 -119 -8 -256 l0 -248 105 0 c151 0 222 35 271
131 67 134 22 290 -103 350 -37 18 -69 24 -152 27 -58 2 -109 1 -113 -4z m239
-110 c54 -41 68 -70 68 -144 0 -54 -4 -74 -21 -97 -31 -42 -77 -64 -144 -70
l-60 -6 0 173 0 172 65 -4 c44 -3 73 -10 92 -24z"/>
<path d="M1150 435 l0 -255 125 0 125 0 0 40 0 40 -80 0 -80 0 0 65 0 64 68 3
67 3 0 40 0 40 -67 3 -68 3 0 59 0 60 80 0 80 0 0 45 0 45 -125 0 -125 0 0
-255z"/>
<path d="M1423 677 c2 -7 78 -122 167 -255 158 -239 162 -243 193 -240 l32 3
3 253 2 252 -40 0 -40 0 0 -170 c0 -162 -6 -194 -26 -151 -5 10 -52 87 -104
170 l-95 150 -49 1 c-35 0 -47 -3 -43 -13z"/>
<path d="M1887 683 c-4 -3 -7 -118 -7 -255 l0 -248 130 0 130 0 0 40 0 40 -85
0 -85 0 0 65 0 65 70 0 70 0 0 45 0 45 -70 0 -70 0 0 60 0 60 80 0 80 0 0 45
0 45 -118 0 c-65 0 -122 -3 -125 -7z"/>
<path d="M2180 435 l0 -255 110 0 110 0 0 40 0 39 -67 3 -68 3 -3 213 -2 212
-40 0 -40 0 0 -255z"/>
<path d="M2615 684 c-65 -17 -93 -31 -131 -66 -55 -51 -78 -117 -72 -202 12
-146 112 -236 263 -236 109 0 193 48 233 132 62 133 19 285 -98 345 -45 23
-152 38 -195 27z m162 -110 c69 -51 92 -138 59 -218 -41 -98 -201 -127 -286
-50 -86 78 -71 220 28 274 50 27 159 24 199 -6z"/>
<path d="M2990 435 l0 -255 45 0 45 0 0 69 0 68 76 6 c58 4 85 12 113 30 91
61 104 203 25 282 -40 40 -97 55 -213 55 l-91 0 0 -255z m224 154 c31 -15 56
-65 49 -102 -3 -15 -19 -38 -35 -52 -24 -20 -40 -25 -89 -25 l-59 0 0 95 0 95
55 0 c30 0 65 -5 79 -11z"/>
<path d="M3390 435 l0 -255 125 0 125 0 0 40 0 39 -82 3 -83 3 -3 63 -3 62 71
0 70 0 0 45 0 45 -70 0 -70 0 0 60 0 59 83 3 82 3 0 40 0 40 -122 3 -123 3 0
-256z"/>
<path d="M3690 435 l0 -255 40 0 40 0 0 210 0 210 70 0 c80 0 113 -12 129 -47
30 -66 -11 -127 -95 -138 -79 -11 -84 -13 -84 -47 0 -24 15 -46 77 -109 l76
-79 61 0 61 0 -79 79 -78 79 56 25 c84 39 122 115 97 198 -29 96 -97 129 -268
129 l-103 0 0 -255z"/>
</g>
</svg>
